<?xml version="1.0" encoding="utf-8"?><!-- Uploaded to: SVG Repo, www.svgrepo.com, Generator: SVG Repo Mixer Tools -->
<svg width="800px" height="800px" viewBox="0 0 24 24" fill="7D4C35" xmlns="http://www.w3.org/2000/svg"><path d="M8.4 3h11.2A2.4 2.4 0 0 1 22 5.4v11.2a2.4 2.4 0 0 1-2.4 2.4H8.4A2.4 2.4 0 0 1 6 16.6V5.4A2.4 2.4 0 0 1 8.4 3Z" stroke="#7D4C35" fill="none"/><path d="M4 5a1 1 0 0 0-2 0v11.6C2 20.132 4.868 23 8.4 23H20a1 1 0 1 0 0-2H8.4A4.403 4.403 0 0 1 4 16.6V5Z" stroke="#7D4C35" fill="none"/></svg>