<?xml version="1.0" encoding="utf-8"?>

<!-- Uploaded to: SVG Repo, www.svgrepo.com, Generator: SVG Repo Mixer Tools -->
<svg width="800px" height="800px" viewBox="0 -6.97 45.684 45.684" xmlns="http://www.w3.org/2000/svg">
  <g id="Group_19" data-name="Group 19" transform="translate(-490.059 -209.985)">
    <path id="Path_37" data-name="Path 37" d="M523.685,220.871a14.561,14.561,0,0,1-9.167,18.439,11.649,11.649,0,0,1-14.751-7.334,9.319,9.319,0,0,1,5.866-11.8,7.455,7.455,0,0,1,9.441,4.694,5.963,5.963,0,0,1-3.754,7.552,4.771,4.771,0,0,1-6.042-3,3.816,3.816,0,0,1,2.4-4.834,3.054,3.054,0,0,1,3.867,1.922" fill="none" stroke="#7D4C35" stroke-linecap="round" stroke-linejoin="round" stroke-width="2"/>
    <path id="Rectangle_5" data-name="Rectangle 5" d="M17.105,0h0A17.105,17.105,0,0,1,34.21,17.105v7.782a4.851,4.851,0,0,1-4.851,4.851H4.851A4.851,4.851,0,0,1,0,24.887V17.105A17.105,17.105,0,0,1,17.105,0Z" transform="translate(491.059 210.985)" fill="none" stroke="#7D4C35" stroke-linecap="round" stroke-linejoin="round" stroke-width="2"/>
    <path id="Path_38" data-name="Path 38" d="M519.412,240.724h9.782a5.55,5.55,0,0,0,5.549-5.55V228.09a17.1,17.1,0,0,0-17.1-17.1h-9.474" fill="none" stroke="#7D4C35" stroke-linecap="round" stroke-linejoin="round" stroke-width="2"/>
  </g>
</svg>